<svg width="33" height="33" viewBox="0 0 33 33" fill="none" xmlns="http://www.w3.org/2000/svg">
  <path d="M18.6803 2.32763C18.6803 1.0421 17.6348 0 16.3452 0C15.0556 0 14.0102 1.0421 14.0102 2.32763C14.0102 3.61313 15.0556 4.65524 16.3452 4.65524C17.6348 4.65524 18.6803 3.61313 18.6803 2.32763Z" fill="#959595"/>
  <path d="M25.6854 9.31052C25.6854 8.02502 24.64 6.98291 23.3503 6.98291C22.0607 6.98291 21.0153 8.02502 21.0153 9.31052C21.0153 10.596 22.0607 11.6381 23.3503 11.6381C24.64 11.6381 25.6854 10.596 25.6854 9.31052Z" fill="#E58F0D"/>
  <path d="M18.6803 9.31052C18.6803 8.02502 17.6348 6.98291 16.3452 6.98291C15.0556 6.98291 14.0102 8.02502 14.0102 9.31052C14.0102 10.596 15.0556 11.6381 16.3452 11.6381C17.6348 11.6381 18.6803 10.596 18.6803 9.31052Z" fill="#E58F0D"/>
  <path d="M11.6752 9.31052C11.6752 8.02502 10.6297 6.98291 9.34016 6.98291C8.05056 6.98291 7.00513 8.02502 7.00513 9.31052C7.00513 10.596 8.05056 11.6381 9.34016 11.6381C10.6297 11.6381 11.6752 10.596 11.6752 9.31052Z" fill="#E58F0D"/>
  <path d="M32.6904 16.2935C32.6904 15.0079 31.6451 13.9658 30.3554 13.9658C29.0659 13.9658 28.0204 15.0079 28.0204 16.2935C28.0204 17.5789 29.0659 18.621 30.3554 18.621C31.6451 18.621 32.6904 17.5789 32.6904 16.2935Z" fill="#959595"/>
  <path d="M25.6854 16.2935C25.6854 15.0079 24.64 13.9658 23.3503 13.9658C22.0607 13.9658 21.0153 15.0079 21.0153 16.2935C21.0153 17.5789 22.0607 18.621 23.3503 18.621C24.64 18.621 25.6854 17.5789 25.6854 16.2935Z" fill="#959595"/>
  <path d="M18.6803 16.2935C18.6803 15.0079 17.6348 13.9658 16.3452 13.9658C15.0556 13.9658 14.0102 15.0079 14.0102 16.2935C14.0102 17.5789 15.0556 18.621 16.3452 18.621C17.6348 18.621 18.6803 17.5789 18.6803 16.2935Z" fill="#E58F0D"/>
  <path d="M11.6752 16.2935C11.6752 15.0079 10.6297 13.9658 9.34016 13.9658C8.05056 13.9658 7.00513 15.0079 7.00513 16.2935C7.00513 17.5789 8.05056 18.621 9.34016 18.621C10.6297 18.621 11.6752 17.5789 11.6752 16.2935Z" fill="#E58F0D"/>
  <path d="M4.67005 16.2935C4.67005 15.0079 3.62462 13.9658 2.33503 13.9658C1.04543 13.9658 0 15.0079 0 16.2935C0 17.5789 1.04543 18.621 2.33503 18.621C3.62462 18.621 4.67005 17.5789 4.67005 16.2935Z" fill="#959595"/>
  <path d="M25.6854 23.2763C25.6854 21.9909 24.64 20.9487 23.3503 20.9487C22.0607 20.9487 21.0153 21.9909 21.0153 23.2763C21.0153 24.5618 22.0607 25.604 23.3503 25.604C24.64 25.604 25.6854 24.5618 25.6854 23.2763Z" fill="#959595"/>
  <path d="M18.6803 23.2763C18.6803 21.9909 17.6348 20.9487 16.3452 20.9487C15.0556 20.9487 14.0102 21.9909 14.0102 23.2763C14.0102 24.5618 15.0556 25.604 16.3452 25.604C17.6348 25.604 18.6803 24.5618 18.6803 23.2763Z" fill="#959595"/>
  <path d="M11.6752 23.2763C11.6752 21.9909 10.6297 20.9487 9.34016 20.9487C8.05056 20.9487 7.00513 21.9909 7.00513 23.2763C7.00513 24.5618 8.05056 25.604 9.34016 25.604C10.6297 25.604 11.6752 24.5618 11.6752 23.2763Z" fill="#E58F0D"/>
  <path d="M18.6803 30.2598C18.6803 28.9743 17.6348 27.9321 16.3452 27.9321C15.0556 27.9321 14.0102 28.9743 14.0102 30.2598C14.0102 31.5454 15.0556 32.5873 16.3452 32.5873C17.6348 32.5873 18.6803 31.5454 18.6803 30.2598Z" fill="#959595"/>
  <path d="M9.85229 23.5918H8.83069V8.82568H23.6821V9.84405H9.85229V23.5918Z" fill="#E58F0D"/>
  <path d="M16.0468 16.8027H9.06586V15.7844H16.0468V16.8027Z" fill="#E58F0D"/>
</svg>